<svg xmlns="http://www.w3.org/2000/svg" width="256" height="256" viewBox="0 0 256 256"><path fill="#646cff" d="M256 128c0 23.39-6.31 45.43-17.76 64.62l-66.7-115.53A80 80 0 0 0 128 48c-23.39 0-45.43 6.31-64.62 17.76l-66.7 115.53C-6.31 173.43 0 151.39 0 128c0-23.39 6.31-45.43 17.76-64.62L128 0l110.24 63.38C249.69 82.57 256 104.61 256 128Z"/><path fill="#42d392" d="M17.76 192.62C36.95 203.94 59 208 80 208c23.39 0 45.43-6.31 64.62-17.76l-33.35-57.76l-64.62 17.76Z"/><path fill="#646cff" d="M111.38 134.88L80 152.64l-15.38-26.64l33.35-57.76l31.29 54.19Z"/><path fill="#42d392" d="m192.62 17.76l-31.29 54.19L128 64l33.35-57.76A80 80 0 0 1 192.62 17.76Z"/></svg>